<svg xmlns="http://www.w3.org/2000/svg" version="1.1" viewBox="0 0 338 213"><g stroke-width="2" fill="none" stroke-linecap="butt"><path stroke="#36332c" vector-effect="non-scaling-stroke" d="M111.47 29.34q-2.03.89-9.58 3.61-5 1.81-12.2 6.48a1.7 1.7 0 0 1-.92.27q-9.86-.01-15.97 2.64-22.17 9.64-25.14 34.53"/><path stroke="#987f34" vector-effect="non-scaling-stroke" d="M47.66 76.87q-1.1.04-3.01 1.37"/><path stroke="#36332c" vector-effect="non-scaling-stroke" d="M120.9 29.83q-3.17 1.26-9.92 1.95-3.8.38-11.56 3.68-2.91 1.24-5.62 3.64a.3.3-58.4 0 0 .11.49l15.57 3.99a2 2 0 0 0 1.21-.09c5.3-2.21 7.5-3.27 12.09-4.85q8.9-3.06 11.42-4.2.86-.39.65-1.98"/><path stroke="#8f6f27" vector-effect="non-scaling-stroke" d="M144.75 38.72c-3.75-1.9-6.1-4.17-10.73-2.51q-8.63 3.09-17.02 6.7"/><path stroke="#8c7429" vector-effect="non-scaling-stroke" d="M117 42.91q-5.9 1.4-10.33 4.66a3.3 3.3-55.7 0 1-2.77.53c-7.39-1.91-15.47-3.6-23.34-2.54-10.67 1.43-20.33 8.97-25.32 18.18q-4.88 9.03-7.58 13.13"/><path stroke="#a27920" vector-effect="non-scaling-stroke" d="M126.69 54.11q4.77 6.76 8.38 12.06 2.33 3.42 4.05 7.06"/><path stroke="#e5a825" vector-effect="non-scaling-stroke" d="m139.12 73.23 2.67 8.29a.24.17-79.1 0 1 .03.07l3.15 13.18a.87.53 50.2 0 1 .03.21q.27 14.35-.92 21.73-.86 5.35-.89 12.04a1.13 1.13 0 0 0 1.13 1.14q.19 0-.07-1.11"/><path stroke="#cc901b" vector-effect="non-scaling-stroke" d="m144.25 128.78 7.28-3.65a.03.03 0 0 1 .03.04l-2.61 3.48a.13.13 0 0 0 .16.2l10-3.95a1.06 1.05-25.4 0 1 1.3.46l1.64 2.84a.46.46 0 0 0 .62.17l.29-.17a.53.53 0 0 0 .12-.82q-1.22-1.33-1.37-2.35a1.96 1.91-17.5 0 1 1.09-2.03l9.34-4.53"/><path stroke="#856e26" vector-effect="non-scaling-stroke" d="M174.76 124.44q-.1.56-.39.68-13.06 5.65-25.62 13.9"/><path stroke="#cc901b" vector-effect="non-scaling-stroke" d="M148.75 139.02q-6.35-4.01-7.28-11.7a5 5 0 0 1 0-1.08c.82-7.32 2.23-15.25 1.9-22.99-.9-21.01-10.26-41.42-26.93-54.77"/><path stroke="#f0b01d" vector-effect="non-scaling-stroke" d="M116.44 48.48q-.73-1.13-1.8-1.3a.3.3 0 0 0-.3.47q.15.21.64.34a.64.54-30.8 0 1-.39 1.11q-.93-.05-1.69-1.62a.34.34 0 0 0-.54-.1c-4.09 3.99-7.68 3.85-12.87 2.42q-7.47-2.07-15.5-2.04a2.23 2.13 36.9 0 0-.51.06l-10.53 2.65a1.41 1.24 22.1 0 0-.23.08l-2.57 1.17a6.39 3.29-28.1 0 0-.71.52q-2.62 2.07-5.06 3.49a3.08 2.97 2.7 0 0-.91.8q-1.37 1.78-3.12 3.15a3.49 3.4 89.3 0 0-.77.81l-5.8 8.33a3.96 3.81-21.1 0 0-.53 1.14q-1.43 5.13-4.13 8.59c-3.45 4.41-3.53 7.79-2.86 13.65q1.37 12.06 5.03 21.85c4.11 10.98 7.59 18.17 17.3 23.42a.28.28 0 0 1-.2.52l-4.64-1.15"/><path stroke="#80671d" vector-effect="non-scaling-stroke" d="M63.75 136.84c-6.04-4.55-9.59-10.94-12.76-17.65"/><path stroke="#8c7429" vector-effect="non-scaling-stroke" d="m50.99 119.19-2.35-5.07"/><path stroke="#a5741e" vector-effect="non-scaling-stroke" d="M144.75 38.72q.06.42.73.53"/><path stroke="#83621b" vector-effect="non-scaling-stroke" d="M166.34 63.58q-1.42.32-2.34-.84"/><path stroke="#a5741e" vector-effect="non-scaling-stroke" d="M164 62.74q-5.5-9.12-13.29-16.32c-1.66-1.54-3.34-2.35-5.44-1.62q-9.41 3.24-18.58 9.31"/><path stroke="#f1bb2e" vector-effect="non-scaling-stroke" d="m126.69 54.11-9.44-8.26a.89.88-64 0 1-.28-.82q.23-1.17.03-2.12"/><path stroke="#623e10" vector-effect="non-scaling-stroke" d="m148.75 139.02-3.23 4.69"/><path stroke="#5d3708" vector-effect="non-scaling-stroke" d="m145.52 143.71-.23.02"/><path stroke="#cc901b" vector-effect="non-scaling-stroke" d="M126.27 62.25c-2.06-3.95-5.89-7.18-8.97-10.41"/><path stroke="#1e1a16" vector-effect="non-scaling-stroke" d="M50.99 119.19q-1.23 3.51-.53 5.45 4.58 12.63 15.91 19.74 2.49 1.56 8.66 4.76a1.29 1.27-81.4 0 1 .66.91q.22 1.17-.01 2.4m-27.05-35.97-.01-1.44"/><path stroke="#cd8007" vector-effect="non-scaling-stroke" d="M116.44 48.48q.09 1.81.86 3.36"/><path stroke="#f0b01d" vector-effect="non-scaling-stroke" d="M117.3 51.84q-2.82 3.36-.57 5.92c3.64 4.14 5.98 7.29 8.06 8.51a1.2 1.2 0 0 0 1.8-.83q.26-1.53-.32-3.19"/><path stroke="#cd8007" vector-effect="non-scaling-stroke" d="M126.27 62.25q6.94 7.85 9.33 15.39 2.55 8.01 3.39 14.33 1.97 14.85-1.61 31.61-1.41 6.65 2.83 12.59c1.99 2.78 5.56 3.37 5.08 7.56"/><path stroke="#81560a" vector-effect="non-scaling-stroke" d="m145.29 143.73-1.1 4.8"/><path stroke="#cd8007" vector-effect="non-scaling-stroke" d="M144.19 148.53q-.62 5.35-1.76 10.6-.49 2.27-2.92 2.58-4.36.56-7.92-1.14l-.1-.06-9.57-7.19a.85.64-8 0 0-.18-.1q-4.57-1.61-14.15-3.28-7.58-1.32-13.55-2.82-9.1-2.29-16.57-4.47a4.79 4.43-20.7 0 1-.84-.34q-4.79-2.48-9.98-3.63"/><path stroke="#81560a" vector-effect="non-scaling-stroke" d="m66.65 138.68-2.9-1.84"/><path stroke="#341f0d" vector-effect="non-scaling-stroke" d="m164 62.74-1.89.58"/><path stroke="#a4680c" vector-effect="non-scaling-stroke" d="M162.11 63.32q-5.04-8.98-12.68-16.57"/><path stroke="#80490a" vector-effect="non-scaling-stroke" d="M149.43 46.75q-.91-1.1-2.63-.51-7.78 2.68-16.91 7.73a.99.96-5.8 0 0-.43.51q-.36.95.39 1.3"/><path stroke="#a5741e" vector-effect="non-scaling-stroke" d="M129.85 55.78q.34.91.61 1.25 6.05 7.64 10.87 16.12.49.86 1.41.36"/><path stroke="#341f0d" vector-effect="non-scaling-stroke" d="M142.74 73.51q-.06.69-.68 1.24a1.2 1.18-18.5 0 0-.41.8l-.14 1.74"/><path stroke="#996015" vector-effect="non-scaling-stroke" d="m141.51 77.29-2.39-4.06"/><path stroke="#5d3708" vector-effect="non-scaling-stroke" d="M66.65 138.68q6.56 4.44 14.06 6.59c6.88 1.97 11.22 3.26 17.31 4.46q11.34 2.25 21.22 4.27a7.38 7.36 72.3 0 1 3.53 1.83q4.13 3.88 8.61 7.26 4.49 3.39 10.11 3.03a1.34 1.28 21.5 0 0 .78-.32q2.29-2.02 2.4-4.8.22-5.44-.48-12.47"/><path stroke="#161413" vector-effect="non-scaling-stroke" d="M145.52 143.71q.87 4.64 1.28 9.34a35 35 0 0 0 2.01 8.57c.21.6.87.53 1.26.1a1.19 1.15 70.6 0 0 .28-.61l1.7-12.7a1.36 1.35-13.9 0 1 .56-.92q11.2-7.63 24.33-12.17"/><path stroke="#5d3708" vector-effect="non-scaling-stroke" d="m176.19 142.98-3.01.32a1.3 1.3 0 0 1-.95-.27c-1.16-.88-2.36-.46-3.09.88q-.74 1.34-1.56 2.43-.4.51-.92.57a.3.3 0 0 1-.18-.56q1.05-.61 1.16-1.75a.65.64-9 0 0-.9-.65l-4.18 1.78a1.36 1.16-68 0 0-.25.13l-8.89 5.54a.5.49 32.1 0 0 .21.91l11.11 1.3"/><path stroke="#83621b" vector-effect="non-scaling-stroke" d="m164.74 153.61 11.1 1.21"/><path stroke="#c37810" vector-effect="non-scaling-stroke" d="M147.76 99.96q.06 12.17-3.01 23.69-.52 1.96-.5 5.13"/><path stroke="#161413" vector-effect="non-scaling-stroke" d="m167.89 65.12-6.45.81"/><path stroke="#292621" vector-effect="non-scaling-stroke" d="M161.44 65.93q-5.27 2.4-10.73 4.83-1.54.68-3.97 2.53a1.13 1.1 74 0 0-.43.8c-.32 4.56 3.02 6.49 6.99 10.07 2.02 1.82 4.79 3.07 7.19 1.84q4.4-2.26 8.87-4.25c2.01-.89 4.48-1.04 6.47-3.23"/><path stroke="#1e1a16" vector-effect="non-scaling-stroke" d="m175.83 78.52 1.46-.71"/><path stroke="#5d3708" vector-effect="non-scaling-stroke" d="M174.02 96.22q-2.98 5.03-8.26 7.77-6.6 3.42-8.52 4.13c-6.55 2.43-7.8-3.69-9.48-8.16"/><path stroke="#774e12" vector-effect="non-scaling-stroke" d="M147.76 99.96q-.72-5.09-1.66-10.32-.48-2.64-4.59-12.35"/><path stroke="#81560a" vector-effect="non-scaling-stroke" d="m162.11 63.32-7.74 3.45"/><path stroke="#cd8007" vector-effect="non-scaling-stroke" d="m149.43 46.75-6.73 3.48a.96.96 0 0 0-.31 1.45l11.98 15.09"/><path stroke="#5d3708" vector-effect="non-scaling-stroke" d="M154.37 66.77q-.4-.05-1.85.82"/><path stroke="#cf8b19" vector-effect="non-scaling-stroke" d="M152.52 67.59q-5.35-8.85-12.34-15.95a.69.67-34.1 0 0-.77-.14l-9.56 4.28"/><path stroke="#83621b" vector-effect="non-scaling-stroke" d="M152.52 67.59q-5.62 2.37-9.78 5.92"/><path stroke="#a5741e" vector-effect="non-scaling-stroke" d="M199.54 145.44q-.16 2.21-1.63 3.89a.54.53 39.4 0 0 .08.78l.3.23a.55.55 0 0 0 .81-.17l1.78-3.09a2 2 0 0 1 1.58-.97l.32-.01a.96.95 16.9 0 1 .82 1.52l-2.03 2.71a.31.31 0 0 0 .25.5h.5a.83.82-71.2 0 0 .66-.33l2.44-3.26a1.75 1.73 18.4 0 1 1.39-.69h.3a.67.66 12.6 0 1 .61.95c-1.62 3.47-2.9 7.98-7.34 7.39a.91.87-10.1 0 0-.94 1.29q.62 1.11 2.79.57"/><path stroke="#f1bb2e" vector-effect="non-scaling-stroke" d="m202.23 156.75-.44.42a.4.39 21.3 0 0 .3.68q6.36-.39 9.52.31 7.12 1.56 11.96 1.49a1.71 1.67-29.9 0 1 .89.23l1.91 1.1a1.6 1.6 0 0 0 1.03.2q2.32-.34 4.48.17 2.09.5 4.3.8 3.27.44 6.16 1.67"/><path stroke="#cf8b19" vector-effect="non-scaling-stroke" d="M239.29 163.4q-.48-.41-1.03-.07"/><path stroke="#a5741e" vector-effect="non-scaling-stroke" d="m227.79 161.9-1.32-.15m-11.68-1.73q-.3-.56-1.28-.27m-21.22-2.82q-.38-.41-1.07-.15m-6.67-.8q-.4-.37-1.26-.23"/><path stroke="#cf8b19" vector-effect="non-scaling-stroke" d="m199.54 145.44-1.9.4a1.41 1.38 7.6 0 0-.92.69q-.68 1.24-1.61 2.78-.49.81-1.24.47a.51.5 34.5 0 1-.15-.8q1.52-1.58 1.62-2.12a1.35 1.35 0 0 0-2.56-.81l-1.55 3.36a.34.33-62 0 1-.47.15l-.36-.21a.4.4 0 0 1-.13-.57q1.07-1.56 1.26-2.48a1.36 1.36 0 0 0-2.49-1q-2.08 3.34-2.41 3.7a.51.51 0 0 1-.84-.57l1.6-3.07a.54.54 0 0 0-.21-.72l-.24-.14a1.13 1.13 29.2 0 0-1.56.44q-1.18 2.24-3.48 5.18-2.21 2.84-5.5 3.07a.42.41 29.5 0 1-.22-.78l2.86-1.42a1 .99-79 0 0 .22-.15q2.88-2.51 4.32-5.76a.66.66 0 0 0-.52-.92l-.43-.06a1.79 1.77-71.1 0 0-1.78.88l-1.73 2.99a.42.41 29.4 0 1-.56.15l-.27-.16a.64.64 0 0 1-.24-.86q.27-.5 1.02-1.69.86-1.36.04-1.74a1.51 1.5-70 0 0-2.08.97c-.64 2.31-1.42 3.32-4.03 3.24a2 2 0 0 0-.97.2c-3.22 1.53-5.72 1.7-7.29 5.53"/><path stroke="#23211e" vector-effect="non-scaling-stroke" d="m175.91 74.28-21.9 8.36"/><path stroke="#2e2d29" vector-effect="non-scaling-stroke" d="M154.01 82.64q-.94-.86-1.06-1.74a.7.7 76.1 0 1 .44-.73l18.02-7.12a.71.7 53.2 0 0 .17-1.21l-.03-.02a2.06 2.05 56.7 0 0-1.86-.39q-10.19 2.96-19.98 7.47a.51.5 86.2 0 1-.69-.61c1.31-4.37 4.88-5.42 9.35-7.19q4.86-1.92 8.96-3.45a.53.53 0 0 0-.12-1.02l-5.77-.7"/><path stroke="#36332c" vector-effect="non-scaling-stroke" d="M154.01 82.64c6.69 2.61 12.56-1.3 18.34-4.3q1.49-.77 3.48.18"/><path stroke="#a27920" vector-effect="non-scaling-stroke" d="M212 147.01q-.39 2.28-2 4.23a.46.46 0 0 0 .12.69l.23.13a.48.47 32.9 0 0 .62-.13l2.93-3.9a1.07 1.07 0 0 1 1.87 1l-.99 2.83a.23.23 0 0 0 .1.28l.39.22a.26.26 0 0 0 .39-.16q.78-2.91 3.1-4.45m1.07.12q.05 2.23-1.12 4.24a.31.3-60.1 0 0 .11.42l.27.16a.26.26 0 0 0 .36-.1l1.6-2.86a2.12 2.11 16.1 0 1 1.94-1.07l.56.03a.82.82 0 0 1 .67 1.23l-1.48 2.57a.46.46 0 0 0 .77.51c1.7-2.26 2.52-4.21 4.55-4.04m0 0q.55.71.26 1.28-.89 1.75-1.7 3.26a.37.36-61.6 0 0 .14.49l.25.15a.3.3 0 0 0 .35-.07l3.21-4.28a1.32 1.3-72 0 1 1-.52l.43-.01a.98.98 0 0 1 .81 1.57l-2.33 3.11a.46.45 33.5 0 0 .14.67l.41.24a.38.37-57 0 0 .49-.11l3.71-5.27"/><path stroke="#987f34" vector-effect="non-scaling-stroke" d="M237.09 149.74q-1.35 5.96-6.75 8.96a.46.45-44.4 0 0-.01.79l.6.35a1.23 1.21-51.4 0 0 1.43-.17c2.95-2.76 4.22-5.31 5.78-8.61a1.46 1.44 3.8 0 1 .86-.74q1.15-.38 2.5-.08"/><path stroke="#a27920" vector-effect="non-scaling-stroke" d="m241.5 150.24.01.45a1.71 1.67 62.7 0 1-.31 1.01q-.96 1.35-1.38 2.88a.43.43 0 0 0 .79.31q1.39-2.57 3.6-4.44"/><path stroke="#80671d" vector-effect="non-scaling-stroke" d="M244.21 150.45h.25"/><path stroke="#a27920" vector-effect="non-scaling-stroke" d="m246.32 150.81-2.38 4.29a.4.4 0 0 0 .16.55l.23.14a.16.16 0 0 0 .21-.05l2.76-3.68a2.5 2.5 0 0 1 1.99-.97l.27.01a.86.86 0 0 1 .73 1.29l-1.92 3.33a.47.47 0 0 0 .78.53q1.39-1.71 2.16-4.02a.8.8 0 0 1 .7-.57l2.47-.24m.32.16q-.46 2.44-1.85 4.57a.3.3 0 0 0 .07.41l.23.17a.1.1-52.5 0 0 .11-.02l3.44-5.08"/><path stroke="#856e26" vector-effect="non-scaling-stroke" d="m259.33 152.04-1.7 4.71a.22.22 0 0 0 .38.21l3.18-4.24a1.07 1.06 33.2 0 1 1.38-.28l.83.49a.6.6 0 0 1 .24.81q-2.88 5.4-8.34 10.2"/><path stroke="#e5a825" vector-effect="non-scaling-stroke" d="M255.3 163.94q-1.43 1.3-6.88.77"/><path stroke="#a27920" vector-effect="non-scaling-stroke" d="M210.28 146.68q-1.94 2.67-4.71 8.13-.81 1.59-3.34 1.94"/><path stroke="#341f0d" vector-effect="non-scaling-stroke" d="m243.29 150.37.92.08"/><path stroke="#161413" vector-effect="non-scaling-stroke" d="M261.29 152.1q.43.12.92.03"/><path stroke="#856e26" vector-effect="non-scaling-stroke" d="m265.5 152.55-3.12 5.21a.47.47 0 0 0 .57.68l3.75-1.44"/><path stroke="#392615" vector-effect="non-scaling-stroke" d="m266.7 157 5.09-.2"/><path stroke="#856e26" vector-effect="non-scaling-stroke" d="M271.79 156.8q-.15-.04.18-.28"/><path stroke="#392615" vector-effect="non-scaling-stroke" d="M271.97 156.52q.93.29 1.39.2"/><path stroke="#856e26" vector-effect="non-scaling-stroke" d="M273.36 156.72q3.33.42 4.78-2.21a.32.32 0 0 1 .59.07q.04.2-.46.75a.5.5 0 0 0 .31.84q2.92.36 3.82-1.61"/><path stroke="#7c551b" vector-effect="non-scaling-stroke" d="M275.64 167.94q-.77-1.38-3.54-1.74-4.89-.64-9.86-.98-2.55-.17-2.66-2.4a.74.74 0 0 0-1.28-.46q-1.05 1.14-3 1.58"/><path stroke="#a27920" vector-effect="non-scaling-stroke" d="M275.05 153.53q-1.28 1.5-1.69 3.19m-1.85-3.67q.9.16 1.28.57.39.41-.03 1.27l-.79 1.63m-3.86-3.71q-.32 2.14-1.41 4.19"/><path stroke="#341f0d" vector-effect="non-scaling-stroke" d="m268.79 152.83.92.04"/><path stroke="#a27920" vector-effect="non-scaling-stroke" d="M270.62 153.02q-1.54 1.02-2.19 3.24a.4.4 8.5 0 0 .39.52l2.97.02"/><path stroke="#e79712" vector-effect="non-scaling-stroke" d="M58.84 75.37q-1.11 3.22-2.68 10.33-.5 2.27-.47 8.59c.02 4.75 2.62 13.02 4.02 16.24 7.61 17.51 23.91 31.42 43.84 27.21 7.1-1.5 10.06-4.76 14.65-9.27a3 3-7 0 0 .51-.65l3.61-5.98a1.69 1.18 79.9 0 0 .12-.26q7.83-20.71-.94-40.55c-2.7-6.08-7.64-11.29-12.72-16.32q-2.88-2.86-6.18-4.31c-3.4-1.49-8-3.76-11.83-4.13-9.59-.93-19.22 2.4-25.47 9.97-3.07 3.71-5.4 6.07-6.46 9.13"/><path stroke="#7c551b" vector-effect="non-scaling-stroke" d="M78.9 64a36.41 29.15-109.9 0 0-15.02 44.15 36.41 29.15-109.9 0 0 39.8 24.32A36.41 29.15-109.9 0 0 118.7 88.3a36.41 29.15-109.9 0 0-39.8-24.32"/><path stroke="#2e2d29" vector-effect="non-scaling-stroke" d="M281.93 165.98q1.52-2.79 4.82-4.52 4.13-2.17 7.15-4.94a.4.4 0 0 0-.31-.7q-3.17.29-6.06.09-3.54-.24-6.26 1.48a1.7 1.7 0 0 1-.96.26q-2.16-.09-3.8.27a.81.8 72.3 0 0-.56 1.1q.21.51.15 1.07-.04.46-.72.8-.88.43-1.7.67a.4.39-4 0 1-.5-.43q.18-1.29.61-1.88a.46.46 0 0 0-.29-.72q-2.81-.48-5.13.55a2.55 2.47 32.9 0 1-1.12.22q-1.83-.07-5.26 1.06a1.04 1.04 0 0 0-.65 1.37l.18.46a.7.7 0 0 0 .6.45l8.67.85a.98.6 31.7 0 0 .19 0l6.04-.54a.05.03 13.3 0 0 .03-.01l4.66-2.25a.58.58 0 0 1 .83.47l.04.42a.84.82-13.5 0 1-.53.85l-3.48 1.38a.52.51-40.9 0 0-.07.93l2.56 1.48a.63.63 0 0 0 .87-.24"/></g><path fill="#413e37" d="M111.47 29.34q-2.03.89-9.58 3.61-5 1.81-12.2 6.48a1.7 1.7 0 0 1-.92.27q-9.86-.01-15.97 2.64-22.17 9.64-25.14 34.53-1.1.04-3.01 1.37.43-2.79.88-5.31.52-2.95 1.34-5.18 6.95-18.93 25.12-28.26 1.64-.84 7.48-3.38 15.31-6.66 32-6.77"/><path fill="#2a2721" d="M120.9 29.83q-3.17 1.26-9.92 1.95-3.8.38-11.56 3.68-2.91 1.24-5.62 3.64a.3.3-58.4 0 0 .11.49l15.57 3.99a2 2 0 0 0 1.21-.09c5.3-2.21 7.5-3.27 12.09-4.85q8.9-3.06 11.42-4.2.86-.39.65-1.98 5.5 2.31 9.9 6.26c-3.75-1.9-6.1-4.17-10.73-2.51q-8.63 3.09-17.02 6.7-5.9 1.4-10.33 4.66a3.3 3.3-55.7 0 1-2.77.53c-7.39-1.91-15.47-3.6-23.34-2.54-10.67 1.43-20.33 8.97-25.32 18.18q-4.88 9.03-7.58 13.13 2.97-24.89 25.14-34.53 6.11-2.65 15.97-2.64a1.7 1.7 0 0 0 .92-.27q7.2-4.67 12.2-6.48 7.55-2.72 9.58-3.61z"/><path fill="#413e37" d="M134.85 32.46q.21 1.59-.65 1.98-2.52 1.14-11.42 4.2c-4.59 1.58-6.79 2.64-12.09 4.85a2 2 0 0 1-1.21.09l-15.57-3.99a.3.3-58.4 0 1-.11-.49q2.71-2.4 5.62-3.64 7.76-3.3 11.56-3.68 6.75-.69 9.92-1.95 6.87.27 13.95 2.63"/><path fill="#f4b62c" d="M144.75 38.72q.06.42.73.53c9.23 7.06 15.72 14 20.86 24.33q-1.42.32-2.34-.84-5.5-9.12-13.29-16.32c-1.66-1.54-3.34-2.35-5.44-1.62q-9.41 3.24-18.58 9.31l-9.44-8.26a.89.88-64 0 1-.28-.82q.23-1.17.03-2.12 8.39-3.61 17.02-6.7c4.63-1.66 6.98.61 10.73 2.51"/><path fill="#56310f" d="M145.48 39.25q-.67-.11-.73-.53.58.15.73.53"/><path fill="#eec030" d="M117 42.91q.2.95-.03 2.12a.89.88-64 0 0 .28.82l9.44 8.26q4.77 6.76 8.38 12.06 2.33 3.42 4.05 7.06l2.67 8.29a.24.17-79.1 0 1 .03.07l3.15 13.18a.87.53 50.2 0 1 .03.21q.27 14.35-.92 21.73-.86 5.35-.89 12.04a1.13 1.13 0 0 0 1.13 1.14q.19 0-.07-1.11l7.28-3.65a.03.03 0 0 1 .03.04l-2.61 3.48a.13.13 0 0 0 .16.2l10-3.95a1.06 1.05-25.4 0 1 1.3.46l1.64 2.84a.46.46 0 0 0 .62.17l.29-.17a.53.53 0 0 0 .12-.82q-1.22-1.33-1.37-2.35a1.96 1.91-17.5 0 1 1.09-2.03l9.34-4.53 2.62 5.97q-.1.56-.39.68-13.06 5.65-25.62 13.9-6.35-4.01-7.28-11.7a5 5 0 0 1 0-1.08c.82-7.32 2.23-15.25 1.9-22.99-.9-21.01-10.26-41.42-26.93-54.77q-.73-1.13-1.8-1.3a.3.3 0 0 0-.3.47q.15.21.64.34a.64.54-30.8 0 1-.39 1.11q-.93-.05-1.69-1.62a.34.34 0 0 0-.54-.1c-4.09 3.99-7.68 3.85-12.87 2.42q-7.47-2.07-15.5-2.04a2.23 2.13 36.9 0 0-.51.06l-10.53 2.65a1.41 1.24 22.1 0 0-.23.08l-2.57 1.17a6.39 3.29-28.1 0 0-.71.52q-2.62 2.07-5.06 3.49a3.08 2.97 2.7 0 0-.91.8q-1.37 1.78-3.12 3.15a3.49 3.4 89.3 0 0-.77.81l-5.8 8.33a3.96 3.81-21.1 0 0-.53 1.14q-1.43 5.13-4.13 8.59c-3.45 4.41-3.53 7.79-2.86 13.65q1.37 12.06 5.03 21.85c4.11 10.98 7.59 18.17 17.3 23.42a.28.28 0 0 1-.2.52l-4.64-1.15c-6.04-4.55-9.59-10.94-12.76-17.65l-2.35-5.07q-6.25-18.21-3.99-35.88 1.91-1.33 3.01-1.37 2.7-4.1 7.58-13.13c4.99-9.21 14.65-16.75 25.32-18.18 7.87-1.06 15.95.63 23.34 2.54a3.3 3.3-55.7 0 0 2.77-.53q4.43-3.26 10.33-4.66"/><path fill="#56310f" d="m164 62.74-1.89.58q-5.04-8.98-12.68-16.57-.91-1.1-2.63-.51-7.78 2.68-16.91 7.73a.99.96-5.8 0 0-.43.51q-.36.95.39 1.3.34.91.61 1.25 6.05 7.64 10.87 16.12.49.86 1.41.36-.06.69-.68 1.24a1.2 1.18-18.5 0 0-.41.8l-.14 1.74-2.39-4.06q-1.72-3.64-4.05-7.06-3.61-5.3-8.38-12.06 9.17-6.07 18.58-9.31c2.1-.73 3.78.08 5.44 1.62q7.79 7.2 13.29 16.32"/><path fill="#a96005" d="m149.43 46.75-6.73 3.48a.96.96 0 0 0-.31 1.45l11.98 15.09q-.4-.05-1.85.82-5.35-8.85-12.34-15.95a.69.67-34.1 0 0-.77-.14l-9.56 4.28q-.75-.35-.39-1.3a.99.96-5.8 0 1 .43-.51q9.13-5.05 16.91-7.73 1.72-.59 2.63.51"/><path fill="#f19f09" d="M116.44 48.48q.09 1.81.86 3.36-2.82 3.36-.57 5.92c3.64 4.14 5.98 7.29 8.06 8.51a1.2 1.2 0 0 0 1.8-.83q.26-1.53-.32-3.19 6.94 7.85 9.33 15.39 2.55 8.01 3.39 14.33 1.97 14.85-1.61 31.61-1.41 6.65 2.83 12.59c1.99 2.78 5.56 3.37 5.08 7.56l-1.1 4.8q-.62 5.35-1.76 10.6-.49 2.27-2.92 2.58-4.36.56-7.92-1.14l-.1-.06-9.57-7.19a.85.64-8 0 0-.18-.1q-4.57-1.61-14.15-3.28-7.58-1.32-13.55-2.82-9.1-2.29-16.57-4.47a4.79 4.43-20.7 0 1-.84-.34q-4.79-2.48-9.98-3.63l-2.9-1.84 4.64 1.15a.28.28 0 0 0 .2-.52c-9.71-5.25-13.19-12.44-17.3-23.42q-3.66-9.79-5.03-21.85c-.67-5.86-.59-9.24 2.86-13.65q2.7-3.46 4.13-8.59a3.96 3.81-21.1 0 1 .53-1.14l5.8-8.33a3.49 3.4 89.3 0 1 .77-.81q1.75-1.37 3.12-3.15a3.08 2.97 2.7 0 1 .91-.8q2.44-1.42 5.06-3.49a6.39 3.29-28.1 0 1 .71-.52l2.57-1.17a1.41 1.24 22.1 0 1 .23-.08l10.53-2.65a2.23 2.13 36.9 0 1 .51-.06q8.03-.03 15.5 2.04c5.19 1.43 8.78 1.57 12.87-2.42a.34.34 0 0 1 .54.1q.76 1.57 1.69 1.62a.64.54-30.8 0 0 .39-1.11q-.49-.13-.64-.34a.3.3 0 0 1 .3-.47q1.07.17 1.8 1.3m-57.6 26.89q-1.11 3.22-2.68 10.33-.5 2.27-.47 8.59c.02 4.75 2.62 13.02 4.02 16.24 7.61 17.51 23.91 31.42 43.84 27.21 7.1-1.5 10.06-4.76 14.65-9.27a3 3-7 0 0 .51-.65l3.61-5.98a1.69 1.18 79.9 0 0 .12-.26q7.83-20.71-.94-40.55c-2.7-6.08-7.64-11.29-12.72-16.32q-2.88-2.86-6.18-4.31c-3.4-1.49-8-3.76-11.83-4.13-9.59-.93-19.22 2.4-25.47 9.97-3.07 3.71-5.4 6.07-6.46 9.13m90.59-28.62q7.64 7.59 12.68 16.57l-7.74 3.45-11.98-15.09a.96.96 0 0 1 .31-1.45z"/><path fill="#a96005" d="M116.44 48.48c16.67 13.35 26.03 33.76 26.93 54.77.33 7.74-1.08 15.67-1.9 22.99a5 5 0 0 0 0 1.08q.93 7.69 7.28 11.7l-3.23 4.69-.23.02c.48-4.19-3.09-4.78-5.08-7.56q-4.24-5.94-2.83-12.59 3.58-16.76 1.61-31.61-.84-6.32-3.39-14.33-2.39-7.54-9.33-15.39c-2.06-3.95-5.89-7.18-8.97-10.41q-.77-1.55-.86-3.36"/><path fill="#f4b62c" d="M152.52 67.59q-5.62 2.37-9.78 5.92-.92.5-1.41-.36-4.82-8.48-10.87-16.12-.27-.34-.61-1.25l9.56-4.28a.69.67-34.1 0 1 .77.14q6.99 7.1 12.34 15.95"/><path fill="#eec030" d="M117.3 51.84c3.08 3.23 6.91 6.46 8.97 10.41q.58 1.66.32 3.19a1.2 1.2 0 0 1-1.8.83c-2.08-1.22-4.42-4.37-8.06-8.51q-2.25-2.56.57-5.92"/><path fill="#dc8f1a" d="M58.84 75.37c1.06-3.06 3.39-5.42 6.46-9.13 6.25-7.57 15.88-10.9 25.47-9.97 3.83.37 8.43 2.64 11.83 4.13q3.3 1.45 6.18 4.31c5.08 5.03 10.02 10.24 12.72 16.32q8.77 19.84.94 40.55a1.69 1.18 79.9 0 1-.12.26l-3.61 5.98a3 3-7 0 1-.51.65c-4.59 4.51-7.55 7.77-14.65 9.27-19.93 4.21-36.23-9.7-43.84-27.21-1.4-3.22-4-11.49-4.02-16.24q-.03-6.32.47-8.59 1.57-7.11 2.68-10.33M78.9 63.99a36.41 29.15-109.9 0 0-15.02 44.16 36.41 29.15-109.9 0 0 39.8 24.32A36.41 29.15-109.9 0 0 118.7 88.3a36.41 29.15-109.9 0 0-39.8-24.32"/><ellipse fill="#1b1b1b" cx="0" cy="0" transform="translate(91.29,98.23) rotate(-109.9)" rx="36.41" ry="29.15"/><path fill="#110d0a" d="M164 62.74q.92 1.16 2.34.84.57.89 1.55 1.54l-6.45.81q-5.27 2.4-10.73 4.83-1.54.68-3.97 2.53a1.13 1.1 74 0 0-.43.8c-.32 4.56 3.02 6.49 6.99 10.07 2.02 1.82 4.79 3.07 7.19 1.84q4.4-2.26 8.87-4.25c2.01-.89 4.48-1.04 6.47-3.23l1.46-.71-3.27 18.41q-2.98 5.03-8.26 7.77-6.6 3.42-8.52 4.13c-6.55 2.43-7.8-3.69-9.48-8.16q-.72-5.09-1.66-10.32-.48-2.64-4.59-12.35l.14-1.74a1.2 1.18-18.5 0 1 .41-.8q.62-.55.68-1.24 4.16-3.55 9.78-5.92 1.45-.87 1.85-.82l7.74-3.45z"/><path fill="#1b1b1b" d="m167.89 65.12 8.02 9.16-21.9 8.36q-.94-.86-1.06-1.74a.7.7 76.1 0 1 .44-.73l18.02-7.12a.71.7 53.2 0 0 .17-1.21l-.03-.02a2.06 2.05 56.7 0 0-1.86-.39q-10.19 2.96-19.98 7.47a.51.5 86.2 0 1-.69-.61c1.31-4.37 4.88-5.42 9.35-7.19q4.86-1.92 8.96-3.45a.53.53 0 0 0-.12-1.02l-5.77-.7z"/><path fill="#413e37" d="m161.44 65.93 5.77.7a.53.53 0 0 1 .12 1.02q-4.1 1.53-8.96 3.45c-4.47 1.77-8.04 2.82-9.35 7.19a.51.5 86.2 0 0 .69.61q9.79-4.51 19.98-7.47a2.06 2.05 56.7 0 1 1.86.39l.03.02a.71.7 53.2 0 1-.17 1.21l-18.02 7.12a.7.7 76.1 0 0-.44.73q.12.88 1.06 1.74c6.69 2.61 12.56-1.3 18.34-4.3q1.49-.77 3.48.18c-1.99 2.19-4.46 2.34-6.47 3.23q-4.47 1.99-8.87 4.25c-2.4 1.23-5.17-.02-7.19-1.84-3.97-3.58-7.31-5.51-6.99-10.07a1.13 1.1 74 0 1 .43-.8q2.43-1.85 3.97-2.53 5.46-2.43 10.73-4.83"/><path fill="#dc8f1a" d="M141.51 77.29q4.11 9.71 4.59 12.35.94 5.23 1.66 10.32.06 12.17-3.01 23.69-.52 1.96-.5 5.13.26 1.11.07 1.11a1.13 1.13 0 0 1-1.13-1.14q.03-6.69.89-12.04 1.19-7.38.92-21.73a.87.53 50.2 0 0-.03-.21l-3.15-13.18a.24.17-79.1 0 0-.03-.07l-2.67-8.29z"/><path fill="#2a2721" d="M175.91 74.28q1.54 1.13 1.38 3.53l-1.46.71q-1.99-.95-3.48-.18c-5.78 3-11.65 6.91-18.34 4.3z"/><path fill="#a96005" d="M174.02 96.22q.33 3.77-.09 5.77-1.77 8.46-1.79 16.48L162.8 123a1.96 1.91-17.5 0 0-1.09 2.03q.15 1.02 1.37 2.35a.53.53 0 0 1-.12.82l-.29.17a.46.46 0 0 1-.62-.17l-1.64-2.84a1.06 1.05-25.4 0 0-1.3-.46l-10 3.95a.13.13 0 0 1-.16-.2l2.61-3.48a.03.03 0 0 0-.03-.04l-7.28 3.65q-.02-3.17.5-5.13 3.07-11.52 3.01-23.69c1.68 4.47 2.93 10.59 9.48 8.16q1.92-.71 8.52-4.13 5.28-2.74 8.26-7.77"/><path fill="#2a2721" d="M50.99 119.19q-1.23 3.51-.53 5.45 4.58 12.63 15.91 19.74 2.49 1.56 8.66 4.76a1.29 1.27-81.4 0 1 .66.91q.22 1.17-.01 2.4-8.37.87-16.68-.68-1.45-.27-4.89-2.13c-6.01-3.26-7.99-7.99-7.99-15.08q0-6.63.26-7.87 1.06-5.14 2.25-10.21l-.01-1.44q-.17-.65.02-.92z"/><path fill="#110d0a" d="m48.63 116.48-.01-1.44zm2.36 2.71c3.17 6.71 6.72 13.1 12.76 17.65l2.9 1.84q6.56 4.44 14.06 6.59c6.88 1.97 11.22 3.26 17.31 4.46q11.34 2.25 21.22 4.27a7.38 7.36 72.3 0 1 3.53 1.83q4.13 3.88 8.61 7.26 4.49 3.39 10.11 3.03a1.34 1.28 21.5 0 0 .78-.32q2.29-2.02 2.4-4.8.22-5.44-.48-12.47l1.1-4.8.23-.02q.87 4.64 1.28 9.34a35 35 0 0 0 2.01 8.57c.21.6.87.53 1.26.1a1.19 1.15 70.6 0 0 .28-.61l1.7-12.7a1.36 1.35-13.9 0 1 .56-.92q11.2-7.63 24.33-12.17l-.75 7.66-3.01.32a1.3 1.3 0 0 1-.95-.27c-1.16-.88-2.36-.46-3.09.88q-.74 1.34-1.56 2.43-.4.51-.92.57a.3.3 0 0 1-.18-.56q1.05-.61 1.16-1.75a.65.64-9 0 0-.9-.65l-4.18 1.78a1.36 1.16-68 0 0-.25.13l-8.89 5.54a.5.49 32.1 0 0 .21.91l11.11 1.3 11.1 1.21-4.43.74a2.64 2.58-68.4 0 0-1.19.53q-8.4 6.68-17.57 11.49-7.16 3.77-14.5.71-6.51-2.71-11.37-7.01a5.5 5.5 67 0 0-3.38-1.37q-4.33-.18-9.82-1.09-7.17-1.18-27.32-5.61-3.04-.67-10.58-.76.23-1.23.01-2.4a1.29 1.27-81.4 0 0-.66-.91q-6.17-3.2-8.66-4.76-11.33-7.11-15.91-19.74-.7-1.94.53-5.45"/><path fill="#1b1b1b" d="M176.94 135.32q-13.13 4.54-24.33 12.17a1.36 1.35-13.9 0 0-.56.92l-1.7 12.7a1.19 1.15 70.6 0 1-.28.61c-.39.43-1.05.5-1.26-.1a35 35 0 0 1-2.01-8.57q-.41-4.7-1.28-9.34l3.23-4.69q12.56-8.25 25.62-13.9.29-.12.39-.68.87.52 1.12 1.44 1.19 4.46 1.06 9.44"/><path fill="#a96005" d="M144.19 148.53q.7 7.03.48 12.47-.11 2.78-2.4 4.8a1.34 1.28 21.5 0 1-.78.32q-5.62.36-10.11-3.03t-8.61-7.26a7.38 7.36 72.3 0 0-3.53-1.83q-9.88-2.02-21.22-4.27c-6.09-1.2-10.43-2.49-17.31-4.46q-7.5-2.15-14.06-6.59 5.19 1.15 9.98 3.63a4.79 4.43-20.7 0 0 .84.34q7.47 2.18 16.57 4.47 5.97 1.5 13.55 2.82 9.58 1.67 14.15 3.28a.85.64-8 0 1 .18.1l9.57 7.19.1.06q3.56 1.7 7.92 1.14 2.43-.31 2.92-2.58 1.14-5.25 1.76-10.6m32-5.55 23.35 2.46-1.9.4a1.41 1.38 7.6 0 0-.92.69q-.68 1.24-1.61 2.78-.49.81-1.24.47a.51.5 34.5 0 1-.15-.8q1.52-1.58 1.62-2.12a1.35 1.35 0 0 0-2.56-.81l-1.55 3.36a.34.33-62 0 1-.47.15l-.36-.21a.4.4 0 0 1-.13-.57q1.07-1.56 1.26-2.48a1.36 1.36 0 0 0-2.49-1q-2.08 3.34-2.41 3.7a.51.51 0 0 1-.84-.57l1.6-3.07a.54.54 0 0 0-.21-.72l-.24-.14a1.13 1.13 29.2 0 0-1.56.44q-1.18 2.24-3.48 5.18-2.21 2.84-5.5 3.07a.42.41 29.5 0 1-.22-.78l2.86-1.42a1 .99-79 0 0 .22-.15q2.88-2.51 4.32-5.76a.66.66 0 0 0-.52-.92l-.43-.06a1.79 1.77-71.1 0 0-1.78.88l-1.73 2.99a.42.41 29.4 0 1-.56.15l-.27-.16a.64.64 0 0 1-.24-.86q.27-.5 1.02-1.69.86-1.36.04-1.74a1.51 1.5-70 0 0-2.08.97c-.64 2.31-1.42 3.32-4.03 3.24a2 2 0 0 0-.97.2c-3.22 1.53-5.72 1.7-7.29 5.53l-11.11-1.3a.5.49 32.1 0 1-.21-.91l8.89-5.54a1.36 1.16-68 0 1 .25-.13l4.18-1.78a.65.64-9 0 1 .9.65q-.11 1.14-1.16 1.75a.3.3 0 0 0 .18.56q.52-.06.92-.57.82-1.09 1.56-2.43c.73-1.34 1.93-1.76 3.09-.88a1.3 1.3 0 0 0 .95.27z"/><path fill="#f4b62c" d="M199.54 145.44q-.16 2.21-1.63 3.89a.54.53 39.4 0 0 .08.78l.3.23a.55.55 0 0 0 .81-.17l1.78-3.09a2 2 0 0 1 1.58-.97l.32-.01a.96.95 16.9 0 1 .82 1.52l-2.03 2.71a.31.31 0 0 0 .25.5h.5a.83.82-71.2 0 0 .66-.33l2.44-3.26a1.75 1.73 18.4 0 1 1.39-.69h.3a.67.66 12.6 0 1 .61.95c-1.62 3.47-2.9 7.98-7.34 7.39a.91.87-10.1 0 0-.94 1.29q.62 1.11 2.79.57l-.44.42a.4.39 21.3 0 0 .3.68q6.36-.39 9.52.31 7.12 1.56 11.96 1.49a1.71 1.67-29.9 0 1 .89.23l1.91 1.1a1.6 1.6 0 0 0 1.03.2q2.32-.34 4.48.17 2.09.5 4.3.8 3.27.44 6.16 1.67-1.52.17-3.05-.42-.48-.41-1.03-.07l-10.47-1.43-1.32-.15-11.68-1.73q-.3-.56-1.28-.27l-21.22-2.82q-.38-.41-1.07-.15l-6.67-.8q-.4-.37-1.26-.23l-7.45-.93-11.1-1.21c1.57-3.83 4.07-4 7.29-5.53a2 2 0 0 1 .97-.2c2.61.08 3.39-.93 4.03-3.24a1.51 1.5-70 0 1 2.08-.97q.82.38-.04 1.74-.75 1.19-1.02 1.69a.64.64 0 0 0 .24.86l.27.16a.42.41 29.4 0 0 .56-.15l1.73-2.99a1.79 1.77-71.1 0 1 1.78-.88l.43.06a.66.66 0 0 1 .52.92q-1.44 3.25-4.32 5.76a1 .99-79 0 1-.22.15l-2.86 1.42a.42.41 29.5 0 0 .22.78q3.29-.23 5.5-3.07 2.3-2.94 3.48-5.18a1.13 1.13 29.2 0 1 1.56-.44l.24.14a.54.54 0 0 1 .21.72l-1.6 3.07a.51.51 0 0 0 .84.57q.33-.36 2.41-3.7a1.36 1.36 0 0 1 2.49 1q-.19.92-1.26 2.48a.4.4 0 0 0 .13.57l.36.21a.34.33-62 0 0 .47-.15l1.55-3.36a1.35 1.35 0 0 1 2.56.81q-.1.54-1.62 2.12a.51.5 34.5 0 0 .15.8q.75.34 1.24-.47.93-1.54 1.61-2.78a1.41 1.38 7.6 0 1 .92-.69z"/><path fill="#56310f" d="M210.28 146.68q-1.94 2.67-4.71 8.13-.81 1.59-3.34 1.94-2.17.54-2.79-.57a.91.87-10.1 0 1 .94-1.29c4.44.59 5.72-3.92 7.34-7.39a.67.66 12.6 0 0-.61-.95h-.3a1.75 1.73 18.4 0 0-1.39.69l-2.44 3.26a.83.82-71.2 0 1-.66.33h-.5a.31.31 0 0 1-.25-.5l2.03-2.71a.96.95 16.9 0 0-.82-1.52l-.32.01a2 2 0 0 0-1.58.97l-1.78 3.09a.55.55 0 0 1-.81.17l-.3-.23a.54.53 39.4 0 1-.08-.78q1.47-1.68 1.63-3.89z"/><path fill="#eec030" d="M212 147.01q-.39 2.28-2 4.23a.46.46 0 0 0 .12.69l.23.13a.48.47 32.9 0 0 .62-.13l2.93-3.9a1.07 1.07 0 0 1 1.87 1l-.99 2.83a.23.23 0 0 0 .1.28l.39.22a.26.26 0 0 0 .39-.16q.78-2.91 3.1-4.45l1.07.12q.05 2.23-1.12 4.24a.31.3-60.1 0 0 .11.42l.27.16a.26.26 0 0 0 .36-.1l1.6-2.86a2.12 2.11 16.1 0 1 1.94-1.07l.56.03a.82.82 0 0 1 .67 1.23l-1.48 2.57a.46.46 0 0 0 .77.51c1.7-2.26 2.52-4.21 4.55-4.04q.55.71.26 1.28-.89 1.75-1.7 3.26a.37.36-61.6 0 0 .14.49l.25.15a.3.3 0 0 0 .35-.07l3.21-4.28a1.32 1.3-72 0 1 1-.52l.43-.01a.98.98 0 0 1 .81 1.57l-2.33 3.11a.46.45 33.5 0 0 .14.67l.41.24a.38.37-57 0 0 .49-.11l3.71-5.27 1.86.27q-1.35 5.96-6.75 8.96a.46.45-44.4 0 0-.01.79l.6.35a1.23 1.21-51.4 0 0 1.43-.17c2.95-2.76 4.22-5.31 5.78-8.61a1.46 1.44 3.8 0 1 .86-.74q1.15-.38 2.5-.08l.01.45a1.71 1.67 62.7 0 1-.31 1.01q-.96 1.35-1.38 2.88a.43.43 0 0 0 .79.31q1.39-2.57 3.6-4.44h.25l1.86.36-2.38 4.29a.4.4 0 0 0 .16.55l.23.14a.16.16 0 0 0 .21-.05l2.76-3.68a2.5 2.5 0 0 1 1.99-.97l.27.01a.86.86 0 0 1 .73 1.29l-1.92 3.33a.47.47 0 0 0 .78.53q1.39-1.71 2.16-4.02a.8.8 0 0 1 .7-.57l2.47-.24.32.16q-.46 2.44-1.85 4.57a.3.3 0 0 0 .07.41l.23.17a.1.1-52.5 0 0 .11-.02l3.44-5.08 2.53.41-1.7 4.71a.22.22 0 0 0 .38.21l3.18-4.24a1.07 1.06 33.2 0 1 1.38-.28l.83.49a.6.6 0 0 1 .24.81q-2.88 5.4-8.34 10.2-1.43 1.3-6.88.77l-6.08-.89q-2.89-1.23-6.16-1.67-2.21-.3-4.3-.8-2.16-.51-4.48-.17a1.6 1.6 0 0 1-1.03-.2l-1.91-1.1a1.71 1.67-29.9 0 0-.89-.23q-4.84.07-11.96-1.49-3.16-.7-9.52-.31a.4.39 21.3 0 1-.3-.68l.44-.42q2.53-.35 3.34-1.94 2.77-5.46 4.71-8.13z"/><path fill="#56310f" d="M218.76 147.75q-2.32 1.54-3.1 4.45a.26.26 0 0 1-.39.16l-.39-.22a.23.23 0 0 1-.1-.28l.99-2.83a1.07 1.07 0 0 0-1.87-1l-2.93 3.9a.48.47 32.9 0 1-.62.13l-.23-.13a.46.46 0 0 1-.12-.69q1.61-1.95 2-4.23zm9.3 1.21c-2.03-.17-2.85 1.78-4.55 4.04a.46.46 0 0 1-.77-.51l1.48-2.57a.82.82 0 0 0-.67-1.23l-.56-.03a2.12 2.11 16.1 0 0-1.94 1.07l-1.6 2.86a.26.26 0 0 1-.36.1l-.27-.16a.31.3-60.1 0 1-.11-.42q1.17-2.01 1.12-4.24zm7.17.51-3.71 5.27a.38.37-57 0 1-.49.11l-.41-.24a.46.45 33.5 0 1-.14-.67l2.33-3.11a.98.98 0 0 0-.81-1.57l-.43.01a1.32 1.3-72 0 0-1 .52l-3.21 4.28a.3.3 0 0 1-.35.07l-.25-.15a.37.36-61.6 0 1-.14-.49q.81-1.51 1.7-3.26.29-.57-.26-1.28z"/><path fill="#413e37" d="M241.5 150.24q-1.35-.3-2.5.08a1.46 1.44 3.8 0 0-.86.74c-1.56 3.3-2.83 5.85-5.78 8.61a1.23 1.21-51.4 0 1-1.43.17l-.6-.35a.46.45-44.4 0 1 .01-.79q5.4-3 6.75-8.96z"/><path fill="#56310f" d="m243.29 150.37.92.08q-2.21 1.87-3.6 4.44a.43.43 0 0 1-.79-.31q.42-1.53 1.38-2.88a1.71 1.67 62.7 0 0 .31-1.01l-.01-.45z"/><path fill="#110d0a" d="M244.46 150.45h-.25l-.92-.08q.62-.06 1.17.08"/><path fill="#56310f" d="m254.48 151.42-2.47.24a.8.8 0 0 0-.7.57q-.77 2.31-2.16 4.02a.47.47 0 0 1-.78-.53l1.92-3.33a.86.86 0 0 0-.73-1.29l-.27-.01a2.5 2.5 0 0 0-1.99.97l-2.76 3.68a.16.16 0 0 1-.21.05l-.23-.14a.4.4 0 0 1-.16-.55l2.38-4.29zm2.32.21-3.44 5.08a.1.1-52.5 0 1-.11.02l-.23-.17a.3.3 0 0 1-.07-.41q1.39-2.13 1.85-4.57z"/><path fill="#1b1b1b" d="M261.29 152.1q.43.12.92.03l3.29.42-3.12 5.21a.47.47 0 0 0 .57.68l3.75-1.44 5.09-.2q-.15-.04.18-.28.93.29 1.39.2 3.33.42 4.78-2.21a.32.32 0 0 1 .59.07q.04.2-.46.75a.5.5 0 0 0 .31.84q2.92.36 3.82-1.61l11.11-.67a1.51 1.49 28 0 0 .67-.2l2.59-1.49a1.55 1.55 0 0 1 2.33 1.35l-.18 17.7a1.89 1.87-35.1 0 1-.12.66q-1.27 3.54-4.07 5.62-4.74 3.51-9.38 7.17-3.28 2.59-5.52-.36a.83.74 28.6 0 1-.17-.48v-15.42a1.27 1.27 0 0 0-1.63-1.22l-2.39.72q-.77-1.38-3.54-1.74-4.89-.64-9.86-.98-2.55-.17-2.66-2.4a.74.74 0 0 0-1.28-.46q-1.05 1.14-3 1.58 5.46-4.8 8.34-10.2a.6.6 0 0 0-.24-.81l-.83-.49a1.07 1.06 33.2 0 0-1.38.28l-3.18 4.24a.22.22 0 0 1-.38-.21l1.7-4.71zm20.64 13.88q1.52-2.79 4.82-4.52 4.13-2.17 7.15-4.94a.4.4 0 0 0-.31-.7q-3.17.29-6.06.09-3.54-.24-6.26 1.48a1.7 1.7 0 0 1-.96.26q-2.16-.09-3.8.27a.81.8 72.3 0 0-.56 1.1q.21.51.15 1.07-.04.46-.72.8-.88.43-1.7.67a.4.39-4 0 1-.5-.43q.18-1.29.61-1.88a.46.46 0 0 0-.29-.72q-2.81-.48-5.13.55a2.55 2.47 32.9 0 1-1.12.22q-1.83-.07-5.26 1.06a1.04 1.04 0 0 0-.65 1.37l.18.46a.7.7 0 0 0 .6.45l8.67.85a.98.6 31.7 0 0 .19 0l6.04-.54a.05.03 13.3 0 0 .03-.01l4.66-2.25a.58.58 0 0 1 .83.47l.04.42a.84.82-13.5 0 1-.53.85l-3.48 1.38a.52.51-40.9 0 0-.07.93l2.56 1.48a.63.63 0 0 0 .87-.24"/><path fill="#110d0a" d="M262.21 152.13q-.49.09-.92-.03z"/><path fill="#eec030" d="M268.11 152.81q-.32 2.14-1.41 4.19l-3.75 1.44a.47.47 0 0 1-.57-.68l3.12-5.21z"/><path fill="#56310f" d="m268.79 152.83.92.04.91.15q-1.54 1.02-2.19 3.24a.4.4 8.5 0 0 .39.52l2.97.02-5.09.2q1.09-2.05 1.41-4.19z"/><path fill="#110d0a" d="m269.71 152.87-.92-.04z"/><path fill="#eec030" d="M271.51 153.05q.9.16 1.28.57.39.41-.03 1.27l-.79 1.63q-.33.24-.18.28l-2.97-.02a.4.4 8.5 0 1-.39-.52q.65-2.22 2.19-3.24z"/><path fill="#56310f" d="M275.05 153.53q-1.28 1.5-1.69 3.19-.46.09-1.39-.2l.79-1.63q.42-.86.03-1.27-.38-.41-1.28-.57z"/><path fill="#eec030" d="M282.4 154.56q-.9 1.97-3.82 1.61a.5.5 0 0 1-.31-.84q.5-.55.46-.75a.32.32 0 0 0-.59-.07q-1.45 2.63-4.78 2.21.41-1.69 1.69-3.19 3.87-.22 7.35 1.03"/><path fill="#56310f" d="m184.55 155.98-1.26-.23q.86-.14 1.26.23"/><path fill="#413e37" d="m281.06 166.22-2.56-1.48a.52.51-40.9 0 1 .07-.93l3.48-1.38a.84.82-13.5 0 0 .53-.85l-.04-.42a.58.58 0 0 0-.83-.47l-4.66 2.25a.05.03 13.3 0 1-.03.01l-6.04.54a.98.6 31.7 0 1-.19 0l-8.67-.85a.7.7 0 0 1-.6-.45l-.18-.46a1.04 1.04 0 0 1 .65-1.37q3.43-1.13 5.26-1.06a2.55 2.47 32.9 0 0 1.12-.22q2.32-1.03 5.13-.55a.46.46 0 0 1 .29.72q-.43.59-.61 1.88a.4.39-4 0 0 .5.43q.82-.24 1.7-.67.68-.34.72-.8.06-.56-.15-1.07a.81.8 72.3 0 1 .56-1.1q1.64-.36 3.8-.27a1.7 1.7 0 0 0 .96-.26q2.72-1.72 6.26-1.48 2.89.2 6.06-.09a.4.4 0 0 1 .31.7q-3.02 2.77-7.15 4.94-3.3 1.73-4.82 4.52a.63.63 0 0 1-.87.24"/><path fill="#56310f" d="M192.29 156.93q-.6.07-1.07-.15.69-.26 1.07.15m22.5 3.09q-.76-.04-1.28-.27.98-.29 1.28.27m13 1.88q-.77.1-1.32-.15z"/><path fill="#dc8f1a" d="M275.64 167.94q-3.17.37-6.12.02-10.48-1.25-21.1-3.25 5.45.53 6.88-.77 1.95-.44 3-1.58a.74.74 0 0 1 1.28.46q.11 2.23 2.66 2.4 4.97.34 9.86.98 2.77.36 3.54 1.74"/><path fill="#a96005" d="m239.29 163.4-1.03-.07q.55-.34 1.03.07"/></svg>